<svg xmlns="http://www.w3.org/2000/svg" version="1.1" xmlns:xlink="http://www.w3.org/1999/xlink" xmlns:svgjs="http://svgjs.dev/svgjs" width="1440" height="560" preserveAspectRatio="none" viewBox="0 0 1440 560"><g mask="url(&quot;#SvgjsMask1078&quot;)" fill="none"><rect width="72" height="72" clip-path="url(&quot;#SvgjsClipPath1079&quot;)" x="1106.52" y="63.72" fill="url(&quot;#SvgjsPattern1080&quot;)" transform="rotate(296.28, 1142.52, 99.72)"></rect><path d="M1109.84 297.14L1108.37 284.41 1120.46 280.19 1118.99 267.47 1131.08 263.24 1129.61 250.52 1141.7 246.29" stroke="rgba(237, 174, 249, 1)" stroke-width="1" stroke-dasharray="2, 2"></path><rect width="168" height="168" clip-path="url(&quot;#SvgjsClipPath1081&quot;)" x="385.34" y="388.01" fill="url(&quot;#SvgjsPattern1082&quot;)" transform="rotate(355.53, 469.34, 472.01)"></rect><circle r="75.55557075354132" cx="1056.41" cy="431.56" fill="rgba(237, 174, 249, 1)"></circle><path d="M1204.3 504.7a5.6 5.6 0 1 0-9.11 6.51 5.6 5.6 0 1 0 9.11-6.51zM1191.28 513.99a5.6 5.6 0 1 0-9.12 6.51 5.6 5.6 0 1 0 9.12-6.51zM1178.25 523.28a5.6 5.6 0 1 0-9.11 6.51 5.6 5.6 0 1 0 9.11-6.51zM1165.23 532.58a5.6 5.6 0 1 0-9.12 6.5 5.6 5.6 0 1 0 9.12-6.5zM1221.07 473.09a5.6 5.6 0 1 0-9.12 6.51 5.6 5.6 0 1 0 9.12-6.51zM1208.04 482.38a5.6 5.6 0 1 0-9.12 6.51 5.6 5.6 0 1 0 9.12-6.51zM1195.01 491.68a5.6 5.6 0 1 0-9.11 6.5 5.6 5.6 0 1 0 9.11-6.5zM1181.99 500.97a5.6 5.6 0 1 0-9.12 6.5 5.6 5.6 0 1 0 9.12-6.5z" stroke="rgba(237, 174, 249, 1)" stroke-width="2.91" stroke-dasharray="3, 2"></path><rect width="307.68" height="307.68" clip-path="url(&quot;#SvgjsClipPath1083&quot;)" x="1256.46" y="349.37" fill="url(&quot;#SvgjsPattern1084&quot;)" transform="rotate(26.99, 1410.3, 503.21)"></rect><path d="M720.33 482.71L728.33 472.72 739.84 478.33 747.85 468.33 759.36 473.95 767.36 463.95 778.87 469.56M722.08 490.52L730.08 480.52 741.59 486.14 749.6 476.14 761.11 481.75 769.11 471.75 780.62 477.37" stroke="rgba(237, 174, 249, 1)" stroke-width="2.01" stroke-dasharray="3, 3"></path><rect width="300" height="300" clip-path="url(&quot;#SvgjsClipPath1085&quot;)" x="408.33" y="278.54" fill="url(&quot;#SvgjsPattern1086&quot;)" transform="rotate(103.94, 558.33, 428.54)"></rect><path d="M696.42 497.19a5.6 5.6 0 1 0-10.91-2.55 5.6 5.6 0 1 0 10.91 2.55zM680.84 493.54a5.6 5.6 0 1 0-10.91-2.55 5.6 5.6 0 1 0 10.91 2.55zM665.26 489.9a5.6 5.6 0 1 0-10.91-2.55 5.6 5.6 0 1 0 10.91 2.55zM649.68 486.26a5.6 5.6 0 1 0-10.91-2.55 5.6 5.6 0 1 0 10.91 2.55zM731.22 488.89a5.6 5.6 0 1 0-10.9-2.55 5.6 5.6 0 1 0 10.9 2.55zM715.64 485.25a5.6 5.6 0 1 0-10.9-2.55 5.6 5.6 0 1 0 10.9 2.55zM700.06 481.61a5.6 5.6 0 1 0-10.9-2.55 5.6 5.6 0 1 0 10.9 2.55zM684.48 477.96a5.6 5.6 0 1 0-10.9-2.55 5.6 5.6 0 1 0 10.9 2.55zM766.02 480.6a5.6 5.6 0 1 0-10.9-2.55 5.6 5.6 0 1 0 10.9 2.55zM750.44 476.95a5.6 5.6 0 1 0-10.9-2.55 5.6 5.6 0 1 0 10.9 2.55zM734.86 473.31a5.6 5.6 0 1 0-10.9-2.55 5.6 5.6 0 1 0 10.9 2.55zM719.29 469.67a5.6 5.6 0 1 0-10.91-2.55 5.6 5.6 0 1 0 10.91 2.55z" fill="rgba(129, 177, 250, 1)"></path><rect width="115.8" height="115.8" clip-path="url(&quot;#SvgjsClipPath1087&quot;)" x="750.65" y="260.52" fill="url(&quot;#SvgjsPattern1088&quot;)" transform="rotate(194.35, 808.55, 318.42)"></rect><rect width="266.40000000000003" height="266.40000000000003" clip-path="url(&quot;#SvgjsClipPath1089&quot;)" x="-90.6" y="307.42" fill="url(&quot;#SvgjsPattern1090&quot;)" transform="rotate(297.7, 42.6, 440.62)"></rect><rect width="324" height="324" clip-path="url(&quot;#SvgjsClipPath1091&quot;)" x="981.31" y="-112.5" fill="url(&quot;#SvgjsPattern1092&quot;)" transform="rotate(98.1, 1143.31, 49.5)"></rect></g><defs><mask id="SvgjsMask1078"><rect width="1440" height="560" fill="#ffffff"></rect></mask><pattern x="0" y="0" width="72" height="6" patternUnits="userSpaceOnUse" id="SvgjsPattern1080"><rect width="72" height="3" x="0" y="0" fill="rgba(129, 177, 250, 1)"></rect><rect width="72" height="3" x="0" y="3" fill="rgba(0, 0, 0, 0)"></rect></pattern><clipPath id="SvgjsClipPath1079"><circle r="18" cx="1142.52" cy="99.72"></circle></clipPath><pattern x="0" y="0" width="6" height="6" patternUnits="userSpaceOnUse" id="SvgjsPattern1082"><path d="M3 1L3 5M1 3L5 3" stroke="rgba(129, 177, 250, 1)" fill="none" stroke-width="1"></path></pattern><clipPath id="SvgjsClipPath1081"><circle r="42" cx="469.34" cy="472.01"></circle></clipPath><pattern x="0" y="0" width="12.82" height="12.82" patternUnits="userSpaceOnUse" id="SvgjsPattern1084"><path d="M0 12.82L6.41 0L12.82 12.82" stroke="rgba(129, 177, 250, 1)" fill="none"></path></pattern><clipPath id="SvgjsClipPath1083"><circle r="76.92" cx="1410.3" cy="503.21"></circle></clipPath><pattern x="0" y="0" width="6" height="6" patternUnits="userSpaceOnUse" id="SvgjsPattern1086"><path d="M0 6L3 0L6 6" stroke="rgba(237, 174, 249, 1)" fill="none"></path></pattern><clipPath id="SvgjsClipPath1085"><circle r="75" cx="558.33" cy="428.54"></circle></clipPath><pattern x="0" y="0" width="115.8" height="11.58" patternUnits="userSpaceOnUse" id="SvgjsPattern1088"><rect width="115.8" height="5.79" x="0" y="0" fill="rgba(129, 177, 250, 1)"></rect><rect width="115.8" height="5.79" x="0" y="5.79" fill="rgba(0, 0, 0, 0)"></rect></pattern><clipPath id="SvgjsClipPath1087"><circle r="28.95" cx="808.55" cy="318.42"></circle></clipPath><pattern x="0" y="0" width="7.4" height="7.4" patternUnits="userSpaceOnUse" id="SvgjsPattern1090"><path d="M0 7.4L3.7 0L7.4 7.4" stroke="rgba(237, 174, 249, 1)" fill="none"></path></pattern><clipPath id="SvgjsClipPath1089"><circle r="66.60000000000001" cx="42.6" cy="440.62"></circle></clipPath><pattern x="0" y="0" width="6" height="6" patternUnits="userSpaceOnUse" id="SvgjsPattern1092"><path d="M3 1L3 5M1 3L5 3" stroke="rgba(129, 177, 250, 1)" fill="none" stroke-width="1"></path></pattern><clipPath id="SvgjsClipPath1091"><circle r="81" cx="1143.31" cy="49.5"></circle></clipPath></defs></svg>